<svg width="160px" height="161px" viewBox="0 0 160 161" version="1.1" xmlns="http://www.w3.org/2000/svg" xmlns:xlink="http://www.w3.org/1999/xlink">
    <g stroke="none" stroke-width="1" fill="none" fill-rule="evenodd">
        <g fill="#1D1C39" fill-rule="nonzero">
            <circle cx="130.8" cy="131.8" r="15"></circle>
            <circle cx="79.9" cy="80.8" r="15"></circle>
            <path d="M123.2,65.4 L123.2,65.4 C120.9,59 117.2,53.1 112.4,48.3 C109.4,45.1 104.3,45 101.1,48 C97.9,51 97.8,56.1 100.8,59.3 C100.9,59.4 101,59.5 101.1,59.6 C104.2,62.8 106.6,66.6 108.1,70.8 L108.1,70.8 C113.7,86.4 105.5,103.6 89.9,109.1 C84.9,110.9 79.5,111.3 74.3,110.3 L74.3,110.3 C72.8,110 71.3,109.6 69.8,109.1 C65.6,107.6 61.8,105.2 58.6,102.1 C47.5,91 46.9,73.2 57.1,61.3 L57.1,61.3 L57.3,61.1 C57.7,60.6 58.1,60.1 58.6,59.6 C59.1,59.1 59.5,58.7 60,58.3 L60.2,58.1 L60.2,58.1 C65.6,53.4 72.6,50.8 79.8,50.8 C84.2,50.8 87.8,47.2 87.8,42.8 C87.8,38.4 84.2,34.8 79.8,34.8 L79.8,34.8 C68.8,34.8 58.1,38.8 49.7,46 L49.7,46 L49.5,46.2 C48.7,46.9 48,47.5 47.2,48.3 C46.4,49.1 45.8,49.8 45.1,50.6 L44.9,50.8 L44.9,50.8 C28.3,69.9 30.3,98.9 49.5,115.5 C53.9,119.3 58.9,122.2 64.3,124.1 C66.5,124.9 68.9,125.5 71.2,126 L71.2,126 C96.2,130.7 120.2,114.2 124.9,89.2 C125.9,83.6 125.9,77.9 124.9,72.4 C124.6,70.1 124,67.7 123.2,65.4 Z"></path>
            <path d="M79.9,0.8 C35.7,0.9 -0.1,36.7 -0.000208988003,80.9 C0.1,125.1 35.9,160.9 80.1,160.800209 C86.8,160.800209 93.5,159.9 99.9,158.3 C104.2,157.2 106.8,152.8 105.7,148.5 C104.6,144.2 100.2,141.6 95.9,142.7 C61.7,151.5 26.9,130.9 18.1,96.8 C9.3,62.6 29.9,27.8 64,19 C98.2,10.2 133,30.8 141.8,64.9 C144.6,75.6 144.5,86.8 141.6,97.5 C140.3,101.7 142.7,106.2 146.9,107.5 C151.1,108.8 155.6,106.4 156.9,102.2 C156.9,102.1 157,101.9 157,101.7 C168.5,59 143.2,15.1 100.5,3.6 C93.9,1.8 86.9,0.8 79.9,0.8 L79.9,0.8 Z"></path>
        </g>
    </g>
</svg>