<svg width="64px" height="64px" viewBox="0 0 64 64" version="1.1" xmlns="http://www.w3.org/2000/svg" xmlns:xlink="http://www.w3.org/1999/xlink">
    <g stroke="none" stroke-width="1" fill="none" fill-rule="evenodd">
        <g transform="translate(0.000000, -1.000000)" fill="#25C16F" fill-rule="nonzero">
            <path d="M55.936,0.999740936 C58.0815128,0.98274538 60.1440345,1.82804129 61.6603438,3.3460429 C63.1766531,4.86404451 64.0196478,6.92750781 64.0003359,9.073 L64.0003359,33.1 C64.0003359,50.722 49.722,65.0000123 32.1,65.0000123 L31.918,65.0000123 C23.4552226,65.0074305 15.3365295,61.6507441 9.34990835,55.6691871 C3.36328719,49.6876302 0,41.5717807 0,33.109 C0,15.437 14.254,1.182 31.9,0.999740936 L55.936,0.999740936 Z M31.9,15.255 C23.807,15.255 17.246,21.815 17.246,29.909 L17.246,39.873 C17.304,42.54 19.452,44.688 22.119,44.746 L26.264,44.746 L26.264,33.3 L20.664,33.3 L20.664,30.1 C21.004,24.074 25.991,19.36 32.028,19.36 C38.065,19.36 43.04,24.065 43.38,30.1 L43.38,33.3 L37.7,33.3 L37.7,44.754 L41.445,44.754 L41.445,44.936 C41.405,47.41 39.41,49.406 36.945,49.436 L32.472,49.436 C32.108,49.436 31.708,49.618 31.708,49.981 C31.7262528,50.3951495 32.0578505,50.7267472 32.472,50.745 L36.972,50.745 C40.177,50.725 42.77,48.132 42.79,44.927 L42.79,44.563 C44.9958991,44.0661101 46.5558824,42.0970737 46.535,39.836 L46.535,30.1 C46.717,21.846 40.171,15.264 31.881,15.264 L31.9,15.255 Z"></path>
        </g>
    </g>
</svg>