<svg width="88px" height="88px" viewBox="0 0 88 88" version="1.1" xmlns="http://www.w3.org/2000/svg" xmlns:xlink="http://www.w3.org/1999/xlink">
    <g stroke="none" stroke-width="1" fill="none" fill-rule="evenodd">
        <g>
            <circle fill="#C28E0E" cx="44" cy="44" r="44"></circle>
            <path d="M66.3867484,38.1764285 C65.8892436,37.5405854 65.2552569,37.0274227 64.5435944,36.6604789 C63.2979853,26.6504638 54.7513459,19 44.5000312,19 C34.2487165,19 25.7020771,26.6504638 24.456468,36.6604789 C23.7448055,37.0274227 23.1108189,37.5405854 22.6133141,38.1764285 C17.8026033,44.3245073 17.7885258,53.1685608 22.6133141,59.3344931 C24.8442482,62.185763 29.3165,62.2628621 31.6095349,59.227073 C32.6859144,57.8019866 33.0229757,56.003573 32.5343567,54.2930305 C31.5733926,50.9289968 31.5733926,46.581825 32.5343567,43.2179908 C32.5757904,43.2179908 33.3749132,40.6212575 31.609435,38.2837488 C30.8753084,37.3118814 29.880199,36.6214805 28.7561955,36.2754821 C30.1262058,28.7935791 36.6886167,23.1890837 44.5000312,23.1890837 C52.3114458,23.1890837 58.8738567,28.7935791 60.2437671,36.2754821 C57.4101961,37.1478089 55.5954967,40.1716292 56.4655061,43.217891 C56.5828186,43.217891 58.0157283,48.8665712 56.4656059,54.2929308 C55.8113517,56.583063 56.6655863,58.9056107 58.439451,60.2921974 C57.9606164,60.8462536 57.4153878,61.3371743 56.8019683,61.7606707 C54.1393242,63.0907048 54.3811377,63.0196899 53.3787398,63.2782162 C52.45272,63.516994 51.5786171,63.632493 50.8564713,63.6847568 C50.8564713,62.4412971 49.8782349,61.5553059 48.7598225,61.5553059 L40.2400402,61.5553059 C39.082091,61.5553059 38.1433914,62.4930622 38.1433914,63.6498477 L38.1433914,67.9054581 C38.1433914,69.0622437 39.082091,70 40.2400402,70 L48.7598225,70 C49.8827277,70 50.8564713,69.1061293 50.8564713,67.8818197 C55.6859521,67.6082327 60.1897534,65.6037561 62.8023775,61.4192604 C64.2108263,61.1993335 65.5093508,60.4554719 66.3865487,59.3344931 C71.197559,53.1862147 71.2113369,44.3421613 66.3867484,38.1764285 L66.3867484,38.1764285 Z" fill="#000000" fill-rule="nonzero"></path>
        </g>
    </g>
</svg>