<svg width="88px" height="88px" viewBox="0 0 88 88" version="1.1" xmlns="http://www.w3.org/2000/svg" xmlns:xlink="http://www.w3.org/1999/xlink">
    <!-- Generator: Sketch 60 (88103) - https://sketch.com -->
    <title>Group</title>
    <desc>Created with Sketch.</desc>
    <g id="Page-1" stroke="none" stroke-width="1" fill="none" fill-rule="evenodd">
        <g id="Group">
            <circle id="Oval" fill="#C28E0E" cx="44" cy="44" r="44"></circle>
            <g id="customer-service" transform="translate(14.000000, 11.000000)" fill="#000000" fill-rule="nonzero">
                <path d="M57,30 L44.872,30 C44.356,26.831 42.302,26.239 42.214,26.216 L34.979,24.237 L34.979,20.759 C35.8211181,20.0237318 36.4416645,19.0683259 36.771,18 L37.979,18 C39.6358542,18 40.979,16.6568542 40.979,15 L40.979,9 C40.979,4.29 35.735,0 29.979,0 C24.223,0 18.979,4.29 18.979,9 L18.979,20 C18.979,21.1045695 19.8744305,22 20.979,22 L21.979,22 C22.5312847,22 22.979,21.5522847 22.979,21 C22.979,20.4477153 22.5312847,20 21.979,20 L20.979,20 L20.979,18 L23.179,18 C23.5133919,19.0684865 24.1362727,20.0239165 24.979,20.761 L24.979,24.236 L17.742,26.214 C17.642,26.239 15.61,26.832 15.105,30 L3,30 C1.34314575,30 0,31.3431458 0,33 L0,34 C0.00525139,35.2667854 0.80564914,36.3937454 2,36.816 L2,58 C2,59.1045695 2.8954305,60 4,60 L8,60 C9.1045695,60 10,59.1045695 10,58 L10,57 L50,57 L50,58 C50,59.1045695 50.8954305,60 52,60 L56,60 C57.1045695,60 58,59.1045695 58,58 L58,36.816 C59.1943509,36.3937454 59.9947486,35.2667854 60,34 L60,33 C60,31.3431458 58.6568542,30 57,30 Z M26.979,23.171 C28.02,24.2 28.987,24 30.909,24 C31.6845794,24.0253593 32.4353236,23.7246989 32.979,23.171 L32.979,24.82 C32.187,26.415 27.779,26.397 26.979,24.82 L26.979,23.171 Z M38.979,15 C38.979,15.5522847 38.5312847,16 37.979,16 L36.979,16 L36.979,12 L38.979,12 L38.979,15 Z M29.979,2 C35.047,2 38.979,5.763 38.979,9 L38.979,10 L36.9,10 C36.4072501,6.5566398 33.4579381,3.99933366 29.9795,3.99933366 C26.5010619,3.99933366 23.5517499,6.5566398 23.059,10 L20.979,10 L20.979,9 C20.979,5.763 24.91,2 29.979,2 Z M22.979,16 L20.979,16 L20.979,12 L22.979,12 L22.979,16 Z M24.979,11 C24.979,8.23857625 27.2175763,6 29.979,6 C32.7404237,6 34.979,8.23857625 34.979,11 L34.979,16.936 C34.8259951,17.8261191 34.3703153,18.6360987 33.689,19.229 C31.992,20.718 31.911,22 30.909,22 L29.048,22 C28.048,22 27.964,20.717 26.263,19.224 C25.5984545,18.6470163 25.146394,17.8640082 24.979,17 L24.979,11 Z M18.264,28.145 L25.484,26.172 C26.074,26.972 27.345,28 29.984,28 C32.623,28 33.884,26.976 34.474,26.173 L41.657,28.137 C41.697,28.151 42.501,28.452 42.841,30 L17.13,30 C17.46,28.451 18.249,28.151 18.264,28.145 Z M10,55 C8.8954305,55 8,55.8954305 8,57 L8,58 L4,58 L4,37 L23.7,37 C20.7586595,39.0527201 19.0059733,42.4131986 19.0059733,46 C19.0059733,49.5868014 20.7586595,52.9472799 23.7,55 L10,55 Z M30,37 C34.9705627,37 39,41.0294373 39,46 C39,50.9705627 34.9705627,55 30,55 C25.0294373,55 21,50.9705627 21,46 C21.006061,41.0319499 25.0319499,37.006061 30,37 Z M56,58 L52,58 L52,57 C52,55.8954305 51.1045695,55 50,55 L36.305,55 C39.2463405,52.9472799 40.9990267,49.5868014 40.9990267,46 C40.9990267,42.4131986 39.2463405,39.0527201 36.305,37 L56,37 L56,58 Z M58,34 C58,34.5522847 57.5522847,35 57,35 L3,35 C2.44771525,35 2,34.5522847 2,34 L2,33 C2,32.4477153 2.44771525,32 3,32 L57,32 C57.5522847,32 58,32.4477153 58,33 L58,34 Z" id="Shape"></path>
                <path d="M26.9999384,43.9995812 C27.552189,43.9995812 27.9998768,43.5518284 27.9998768,42.9994974 C27.9998768,41.8948354 28.8952521,40.9993299 29.9997535,40.9993299 C31.104255,40.9993299 31.9996303,41.8948354 31.9996303,42.9994974 C31.9996303,44.1041594 31.104255,44.9996649 29.9997535,44.9996649 C29.4475029,44.9996649 28.9998151,45.4474177 28.9998151,45.9997487 L28.9998151,47.9999162 C28.9998151,48.5522472 29.4475029,49 29.9997535,49 C30.5520042,49 30.9996919,48.5522472 30.9996919,47.9999162 L30.9996919,46.8738219 C33.012122,46.3541391 34.2912397,44.3794969 33.9429481,42.3301602 C33.5946565,40.2808236 31.7350312,38.8397764 29.6639406,39.0143032 C27.59285,39.1888301 26.0005283,40.9207664 26,42.9994974 C26,43.5518284 26.4476877,43.9995812 26.9999384,43.9995812 L26.9999384,43.9995812 Z" id="Shape"></path>
                <circle id="Oval" cx="30" cy="52" r="1"></circle>
            </g>
        </g>
    </g>
</svg>